<?xml version="1.0" encoding="utf-8"?><svg viewBox="0 0 32 32" xmlns="http://www.w3.org/2000/svg" xmlns:xlink="http://www.w3.org/1999/xlink"><style>:root>svg{display:none}:root>svg:target{display:block}</style><svg viewBox="0 0 32 32" id="arrow" xmlns="http://www.w3.org/2000/svg"><g clip-path="url(#aa)" stroke-width="2"><circle cx="16" cy="16" r="15"/><path d="M14 11l5 5-5 5"/></g><defs><clipPath id="aa"><path d="M0 0h32v32H0z"/></clipPath></defs></svg><svg viewBox="0 0 22 22" id="mdi_call" xmlns="http://www.w3.org/2000/svg"><path d="M18.343 14.098a10.49 10.49 0 01-3.236-.513.896.896 0 00-.926.22l-1.44 1.806c-2.593-1.238-5.023-3.575-6.315-6.261l1.787-1.522a.935.935 0 00.22-.935 10.223 10.223 0 01-.513-3.235.916.916 0 00-.907-.908H3.84c-.495 0-1.091.22-1.091.908 0 8.515 7.086 15.592 15.593 15.592.65 0 .907-.578.907-1.082v-3.162a.916.916 0 00-.907-.908z"/></svg><svg viewBox="0 0 20 20" id="search" xmlns="http://www.w3.org/2000/svg"><path d="M17.819 16.063l-3.212-2.747a6.968 6.968 0 001.456-4.285c0-1.88-.734-3.642-2.06-4.97A6.98 6.98 0 009.03 2a6.99 6.99 0 00-4.97 2.06A6.975 6.975 0 002 9.031c0 1.878.734 3.645 2.06 4.971a6.975 6.975 0 004.971 2.06 6.97 6.97 0 004.282-1.453l3.212 2.745a.193.193 0 00.272 0l1.022-1.02a.195.195 0 00.056-.136.193.193 0 00-.056-.136zm-5.075-3.32a5.222 5.222 0 01-3.713 1.538 5.222 5.222 0 01-3.712-1.537A5.222 5.222 0 013.78 9.03c0-1.401.546-2.72 1.538-3.712A5.222 5.222 0 019.03 3.78c1.402 0 2.721.544 3.713 1.538A5.222 5.222 0 0114.28 9.03a5.218 5.218 0 01-1.537 3.713z"/></svg></svg>